<?xml version="1.0" encoding="UTF-8"?>
<svg width="730px" height="730px" viewBox="0 0 730 730" version="1.1" xmlns="http://www.w3.org/2000/svg" xmlns:xlink="http://www.w3.org/1999/xlink">
    <!-- Generator: Sketch 49.1 (51147) - http://www.bohemiancoding.com/sketch -->
    <title>Logo</title>
    <desc>Created with Sketch.</desc>
    <defs>
        <linearGradient x1="128.25%" y1="165.667808%" x2="22.668352%" y2="13.5529759%" id="linearGradient-1">
            <stop stop-color="#351D04" offset="0%"></stop>
            <stop stop-color="#A46019" offset="100%"></stop>
        </linearGradient>
        <path d="M69.1413176,111 C63.0219334,105.601072 54.7597849,100.16967 46.9919587,97.6495259 C46.9919587,97.6495259 39.1722131,88.0452056 67.443601,59.8325148 C95.7149889,31.6198239 105.94081,38.8230641 105.94081,38.8230641 C105.94081,38.8230641 113.781773,51.7397494 121,58.9429896 C109.22002,69.2765129 100.589078,77.1785362 95.1071729,82.6490595 C89.0933833,88.6503632 80.4380982,98.1006767 69.1413176,111 Z" id="path-2"></path>
        <linearGradient x1="75.6806931%" y1="80.0899145%" x2="20.054234%" y2="20.6140297%" id="linearGradient-3">
            <stop stop-color="#452504" offset="0%"></stop>
            <stop stop-color="#CC7E23" offset="100%"></stop>
        </linearGradient>
        <linearGradient x1="50%" y1="0%" x2="94.7988861%" y2="68.4104628%" id="linearGradient-4">
            <stop stop-color="#5B2705" stop-opacity="0.295289855" offset="0%"></stop>
            <stop stop-color="#3D2002" offset="100%"></stop>
        </linearGradient>
        <path d="M184.617269,495.687743 C184.617269,495.687743 124.440713,507.142038 72.7236542,462.368635 C21.0065954,417.595232 -73.9375941,271.927074 100.253547,95.638703 C274.444688,-80.649668 438.646017,35.278252 467.073043,63.7509442 C493.256149,89.9761112 519.088454,125.542744 496.1049,173.401099 C494.671452,176.393761 492.554546,176.896577 491.266257,174.612703 C465.258552,128.571754 314.050964,26.1912226 176.149644,180.064921 C43.6434109,327.916948 116.87627,444.800378 182.802778,486.600714 C197.113064,495.675627 184.617269,495.687743 184.617269,495.687743 Z" id="path-5"></path>
        <linearGradient x1="51.6701452%" y1="5.82186531%" x2="44.3022583%" y2="100%" id="linearGradient-6">
            <stop stop-color="#BC750A" offset="0%"></stop>
            <stop stop-color="#FCAC33" offset="100%"></stop>
        </linearGradient>
        <radialGradient cx="56.4958395%" cy="72.9306495%" fx="56.4958395%" fy="72.9306495%" r="28.7930255%" gradientTransform="translate(0.564958,0.729306),scale(0.986517,1.000000),rotate(78.081688),translate(-0.564958,-0.729306)" id="radialGradient-7">
            <stop stop-color="#FFFFFF" stop-opacity="0.536939538" offset="0%"></stop>
            <stop stop-color="#FFFFFF" stop-opacity="0" offset="100%"></stop>
        </radialGradient>
        <linearGradient x1="81.5871332%" y1="16.2365034%" x2="18.7503799%" y2="84.7556686%" id="linearGradient-8">
            <stop stop-color="#994409" offset="0%"></stop>
            <stop stop-color="#D18E28" stop-opacity="0" offset="51.910224%"></stop>
            <stop stop-color="#994409" offset="100%"></stop>
        </linearGradient>
        <path d="M504.596972,503.533622 C465.273649,540.333219 361.979965,564.004523 292.495534,538.046903 C222.805061,512.010569 168.264692,467.651921 147.054548,437.534542 C119.784363,398.782788 75.5460629,312.802335 187.050819,189.886616 C298.555575,66.970897 402.042896,118.165597 431.876479,134.786466 C463.388692,152.345854 553.683305,238.931804 559.137341,337.022181 C564.591378,435.112557 543.920294,466.734026 504.596972,503.533622 Z" id="path-9"></path>
        <radialGradient cx="50%" cy="21.2342006%" fx="50%" fy="21.2342006%" r="82.2653594%" gradientTransform="translate(0.500000,0.212342),scale(0.769231,1.000000),rotate(90.000000),translate(-0.500000,-0.212342)" id="radialGradient-10">
            <stop stop-color="#F9AE41" offset="0%"></stop>
            <stop stop-color="#A2500C" offset="100%"></stop>
        </radialGradient>
        <ellipse id="path-11" cx="485.5" cy="472" rx="19.5" ry="15"></ellipse>
        <path d="M69.1413176,111 C63.0219334,105.601072 54.7597849,100.16967 46.9919587,97.6495259 C46.9919587,97.6495259 39.1722131,88.0452056 67.443601,59.8325148 C95.7149889,31.6198239 105.94081,38.8230641 105.94081,38.8230641 C105.94081,38.8230641 113.781773,51.7397494 121,58.9429896 C109.22002,69.2765129 100.589078,77.1785362 95.1071729,82.6490595 C89.0933833,88.6503632 80.4380982,98.1006767 69.1413176,111 Z" id="path-12"></path>
        <linearGradient x1="75.6806931%" y1="80.0899145%" x2="20.054234%" y2="20.6140297%" id="linearGradient-13">
            <stop stop-color="#B96610" offset="0%"></stop>
            <stop stop-color="#CC7E23" offset="100%"></stop>
        </linearGradient>
        <path d="M184.617269,495.687743 C184.617269,495.687743 124.440713,507.142038 72.7236542,462.368635 C21.0065954,417.595232 -73.9375941,271.927074 100.253547,95.638703 C274.444688,-80.649668 438.646017,35.278252 467.073043,63.7509442 C493.256149,89.9761112 519.088454,125.542744 496.1049,173.401099 C494.671452,176.393761 492.554546,176.896577 491.266257,174.612703 C465.258552,128.571754 314.050964,26.1912226 176.149644,180.064921 C43.6434109,327.916948 116.87627,444.800378 182.802778,486.600714 C197.113064,495.675627 184.617269,495.687743 184.617269,495.687743 Z" id="path-14"></path>
        <path d="M504.596972,503.533622 C465.273649,540.333219 361.979965,564.004523 292.495534,538.046903 C222.805061,512.010569 168.264692,467.651921 147.054548,437.534542 C119.784363,398.782788 75.5460629,312.802335 187.050819,189.886616 C298.555575,66.970897 402.042896,118.165597 431.876479,134.786466 C463.388692,152.345854 553.683305,238.931804 559.137341,337.022181 C564.591378,435.112557 543.920294,466.734026 504.596972,503.533622 Z" id="path-15"></path>
        <radialGradient cx="50%" cy="21.2342006%" fx="50%" fy="21.2342006%" r="82.2653594%" gradientTransform="translate(0.500000,0.212342),scale(0.769231,1.000000),rotate(90.000000),translate(-0.500000,-0.212342)" id="radialGradient-16">
            <stop stop-color="#F9AE41" offset="0%"></stop>
            <stop stop-color="#A2500C" offset="100%"></stop>
        </radialGradient>
    </defs>
    <g id="Logo" stroke="none" stroke-width="1" fill="none" fill-rule="evenodd">
        <g transform="translate(81.000000, 94.000000)" fill-rule="nonzero" id="Acorn">
            <g>
                <g id="Shape">
                    <use fill="url(#linearGradient-1)" fill-rule="evenodd" xlink:href="#path-2"></use>
                    <path stroke="#000000" stroke-width="18" d="M63.1870504,117.74883 C57.3063571,112.56049 50.1333608,108.130512 44.2145693,106.210256 L41.689079,105.390902 L40.0127104,103.331963 C39.2897763,102.444045 38.6094907,101.283499 38.0710424,99.8504292 C34.0840458,89.2391148 40.3955971,74.1096455 61.0862567,53.4619439 C81.8475244,32.7437808 97.1415271,26.323146 107.853517,29.8669851 C109.17871,30.3053977 110.270103,30.863947 111.123759,31.4652766 L112.659474,32.54706 L113.634244,34.152831 C113.728157,34.3075372 113.927922,34.6311887 114.222179,35.0991081 C114.724218,35.8974392 115.298567,36.7916605 115.933601,37.7568241 C117.74454,40.5092002 119.665287,43.2582878 121.593623,45.7963026 C123.158701,47.8562095 124.656535,49.6794776 126.041497,51.1939166 C126.496923,51.6919193 126.936346,52.1522941 127.357344,52.5724187 L134.165318,59.3662577 L126.935008,65.7087625 C115.288013,75.9256298 106.780946,83.7142394 101.464517,89.0196304 C95.6235456,94.848475 87.0869431,104.169204 75.9119391,116.929476 L69.960677,123.724974 L63.1870504,117.74883 Z"></path>
                </g>
                <g id="Shape">
                    <use fill="url(#linearGradient-3)" fill-rule="evenodd" xlink:href="#path-5"></use>
                    <use fill="url(#linearGradient-4)" fill-rule="evenodd" xlink:href="#path-5"></use>
                    <path stroke="#000000" stroke-width="18" d="M185.55128,504.660066 C185.30634,504.700321 185.022711,504.744996 184.701249,504.793214 C183.547499,504.966273 182.217777,505.136809 180.722216,505.29435 C170.098486,506.413444 157.523452,506.346121 143.7404,504.308029 C124.341319,501.439499 105.302688,494.99997 87.4422348,484.187071 C80.2795861,479.850731 73.3973532,474.856067 66.8328902,469.172965 C51.3758928,455.791261 35.713927,437.071012 22.9681997,415.556043 C7.4682712,389.391942 -3.08867149,360.365426 -7.15007764,329.495761 C-11.8920946,293.452955 -7.64613751,256.009321 6.77300021,217.835452 C22.9411246,175.031238 51.6149403,132.058138 93.8516195,89.3129365 C135.924237,46.7337726 179.575993,18.6576268 224.206122,3.7445511 C263.068985,-9.24140348 301.834719,-11.9775698 339.731682,-5.97993892 C370.786238,-1.06519787 400.10898,9.5295034 426.585536,24.0382923 C446.427427,34.9113763 463.603133,47.5373101 473.44211,57.3920927 C490.404151,74.3813826 501.879039,89.9020082 508.445632,107.282744 C516.853574,129.537242 515.960868,152.844923 504.221811,177.288999 C502.472994,180.940069 499.743469,183.748382 495.785021,184.724069 C490.538986,186.017124 485.880711,183.383724 483.430066,179.039227 C477.236498,168.074869 463.236196,154.049674 445.369384,141.831649 C424.304985,127.42699 399.673431,116.552845 373.836499,111.182482 C343.733534,104.925398 313.022238,106.274727 282.75157,116.36148 C248.028328,127.931914 214.488621,150.77053 182.851913,186.07155 C124.017644,251.719525 103.183116,314.589087 113.907905,371.43362 C122.431735,416.612421 151.386965,456.025098 187.622693,479.00016 C194.219161,483.183331 197.787721,486.715721 198.547986,491.733939 C199.165329,495.80878 197.450178,499.470515 194.459201,501.76506 C192.824667,503.019001 191.087525,503.716795 189.179483,504.159891 C188.139194,504.401473 187.116219,504.544406 186.10712,504.623171 C185.910832,504.638492 185.725254,504.650638 185.55128,504.660066 Z"></path>
                </g>
                <g id="Shape">
                    <use fill="url(#linearGradient-6)" fill-rule="evenodd" xlink:href="#path-9"></use>
                    <use fill="url(#radialGradient-7)" fill-rule="evenodd" style="mix-blend-mode: luminosity;" xlink:href="#path-9"></use>
                    <use fill="url(#linearGradient-8)" fill-rule="evenodd" xlink:href="#path-9"></use>
                    <path stroke="#000000" stroke-width="18" d="M510.746568,510.104959 C489.828141,529.680865 452.813573,545.551331 411.48945,553.17487 C367.775336,561.239318 323.843751,559.365309 289.345776,546.477741 C224.947006,522.418384 165.495381,479.350285 139.694329,442.714037 C130.771964,430.035088 123.51257,417.337627 117.775387,403.150217 C110.416513,384.952549 106.271912,365.76458 106.012808,345.38649 C105.371882,294.978787 128.423785,241.118285 180.38497,183.839595 C231.827865,127.132234 285.769602,101.618824 339.989433,101.010886 C360.73829,100.77824 380.601462,104.23658 399.564343,110.561266 C413.178934,115.102138 424.532556,120.392551 436.25729,126.924628 C456.392933,138.144709 487.605045,167.283441 512.46749,200.290253 C545.072522,243.575947 565.553499,290.301977 568.123461,336.522533 C570.833112,385.255357 567.30607,419.498094 557.072833,446.45597 C548.063954,470.188464 534.721942,487.668297 510.746568,510.104959 Z"></path>
                </g>
                <g id="Oval" transform="translate(485.500000, 472.000000) rotate(-45.000000) translate(-485.500000, -472.000000) ">
                    <use fill="url(#radialGradient-10)" fill-rule="evenodd" xlink:href="#path-11"></use>
                    <ellipse stroke="#000000" stroke-width="18" cx="485.5" cy="472" rx="28.5" ry="24"></ellipse>
                </g>
            </g>
            <g>
                <g id="Stalk">
                    <use fill="url(#linearGradient-1)" fill-rule="evenodd" xlink:href="#path-12"></use>
                    <path stroke="#000000" stroke-width="18" d="M63.1870504,117.74883 C57.3063571,112.56049 50.1333608,108.130512 44.2145693,106.210256 L41.689079,105.390902 L40.0127104,103.331963 C39.2897763,102.444045 38.6094907,101.283499 38.0710424,99.8504292 C34.0840458,89.2391148 40.3955971,74.1096455 61.0862567,53.4619439 C81.8475244,32.7437808 97.1415271,26.323146 107.853517,29.8669851 C109.17871,30.3053977 110.270103,30.863947 111.123759,31.4652766 L112.659474,32.54706 L113.634244,34.152831 C113.728157,34.3075372 113.927922,34.6311887 114.222179,35.0991081 C114.724218,35.8974392 115.298567,36.7916605 115.933601,37.7568241 C117.74454,40.5092002 119.665287,43.2582878 121.593623,45.7963026 C123.158701,47.8562095 124.656535,49.6794776 126.041497,51.1939166 C126.496923,51.6919193 126.936346,52.1522941 127.357344,52.5724187 L134.165318,59.3662577 L126.935008,65.7087625 C115.288013,75.9256298 106.780946,83.7142394 101.464517,89.0196304 C95.6235456,94.848475 87.0869431,104.169204 75.9119391,116.929476 L69.960677,123.724974 L63.1870504,117.74883 Z"></path>
                </g>
                <g id="Case">
                    <use fill="url(#linearGradient-13)" fill-rule="evenodd" xlink:href="#path-14"></use>
                    <use fill="url(#linearGradient-4)" fill-rule="evenodd" xlink:href="#path-14"></use>
                    <path stroke="#000000" stroke-width="18" d="M185.55128,504.660066 C185.30634,504.700321 185.022711,504.744996 184.701249,504.793214 C183.547499,504.966273 182.217777,505.136809 180.722216,505.29435 C170.098486,506.413444 157.523452,506.346121 143.7404,504.308029 C124.341319,501.439499 105.302688,494.99997 87.4422348,484.187071 C80.2795861,479.850731 73.3973532,474.856067 66.8328902,469.172965 C51.3758928,455.791261 35.713927,437.071012 22.9681997,415.556043 C7.4682712,389.391942 -3.08867149,360.365426 -7.15007764,329.495761 C-11.8920946,293.452955 -7.64613751,256.009321 6.77300021,217.835452 C22.9411246,175.031238 51.6149403,132.058138 93.8516195,89.3129365 C135.924237,46.7337726 179.575993,18.6576268 224.206122,3.7445511 C263.068985,-9.24140348 301.834719,-11.9775698 339.731682,-5.97993892 C370.786238,-1.06519787 400.10898,9.5295034 426.585536,24.0382923 C446.427427,34.9113763 463.603133,47.5373101 473.44211,57.3920927 C490.404151,74.3813826 501.879039,89.9020082 508.445632,107.282744 C516.853574,129.537242 515.960868,152.844923 504.221811,177.288999 C502.472994,180.940069 499.743469,183.748382 495.785021,184.724069 C490.538986,186.017124 485.880711,183.383724 483.430066,179.039227 C477.236498,168.074869 463.236196,154.049674 445.369384,141.831649 C424.304985,127.42699 399.673431,116.552845 373.836499,111.182482 C343.733534,104.925398 313.022238,106.274727 282.75157,116.36148 C248.028328,127.931914 214.488621,150.77053 182.851913,186.07155 C124.017644,251.719525 103.183116,314.589087 113.907905,371.43362 C122.431735,416.612421 151.386965,456.025098 187.622693,479.00016 C194.219161,483.183331 197.787721,486.715721 198.547986,491.733939 C199.165329,495.80878 197.450178,499.470515 194.459201,501.76506 C192.824667,503.019001 191.087525,503.716795 189.179483,504.159891 C188.139194,504.401473 187.116219,504.544406 186.10712,504.623171 C185.910832,504.638492 185.725254,504.650638 185.55128,504.660066 Z"></path>
                </g>
                <g id="Nut">
                    <use fill="url(#linearGradient-6)" fill-rule="evenodd" xlink:href="#path-15"></use>
                    <use fill="url(#radialGradient-7)" fill-rule="evenodd" style="mix-blend-mode: luminosity;" xlink:href="#path-15"></use>
                    <use fill="url(#linearGradient-8)" fill-rule="evenodd" xlink:href="#path-15"></use>
                    <path stroke="#000000" stroke-width="18" d="M510.746568,510.104959 C489.828141,529.680865 452.813573,545.551331 411.48945,553.17487 C367.775336,561.239318 323.843751,559.365309 289.345776,546.477741 C224.947006,522.418384 165.495381,479.350285 139.694329,442.714037 C130.771964,430.035088 123.51257,417.337627 117.775387,403.150217 C110.416513,384.952549 106.271912,365.76458 106.012808,345.38649 C105.371882,294.978787 128.423785,241.118285 180.38497,183.839595 C231.827865,127.132234 285.769602,101.618824 339.989433,101.010886 C360.73829,100.77824 380.601462,104.23658 399.564343,110.561266 C413.178934,115.102138 424.532556,120.392551 436.25729,126.924628 C456.392933,138.144709 487.605045,167.283441 512.46749,200.290253 C545.072522,243.575947 565.553499,290.301977 568.123461,336.522533 C570.833112,385.255357 567.30607,419.498094 557.072833,446.45597 C548.063954,470.188464 534.721942,487.668297 510.746568,510.104959 Z"></path>
                </g>
                <g id="Nipple" transform="translate(433.000000, 423.000000)">
                    <ellipse id="Outline" fill="#000000" transform="translate(41.500000, 41.500000) rotate(-45.000000) translate(-41.500000, -41.500000) " cx="41.5" cy="41.5" rx="32.5" ry="25.5"></ellipse>
                    <ellipse id="Fill" fill="url(#radialGradient-16)" transform="translate(35.500000, 32.000000) rotate(-45.000000) translate(-35.500000, -32.000000) " cx="35.5" cy="32" rx="25.4831259" ry="19.6024045"></ellipse>
                </g>
            </g>
        </g>
    </g>
</svg>