<?xml version="1.0" encoding="UTF-8"?>
<svg width="730px" height="148px" viewBox="0 0 730 148" version="1.1" xmlns="http://www.w3.org/2000/svg" xmlns:xlink="http://www.w3.org/1999/xlink">
    <!-- Generator: Sketch 49.1 (51147) - http://www.bohemiancoding.com/sketch -->
    <title>oaknut.</title>
    <desc>Created with Sketch.</desc>
    <defs></defs>
    <g id="Page-1" stroke="none" stroke-width="1" fill="none" fill-rule="evenodd">
        <g id="Name-BG" transform="translate(-142.000000, -62.000000)" fill="#FFFFFF">
            <g transform="translate(1.000000, 2.000000)" id="oaknut.">
                <path d="M185.438477,112.416992 C176.779579,112.416992 170.223655,115.787727 165.770508,122.529297 C161.317361,129.270867 159.09082,139.259374 159.09082,152.495117 C159.09082,165.669011 161.317361,175.642056 165.770508,182.414551 C170.223655,189.187046 176.779579,192.573242 185.438477,192.573242 C194.159223,192.573242 200.746071,189.187046 205.199219,182.414551 C209.652366,175.642056 211.878906,165.669011 211.878906,152.495117 C211.878906,139.259374 209.652366,129.270867 205.199219,122.529297 C200.746071,115.787727 194.159223,112.416992 185.438477,112.416992 Z M185.438477,97.9443359 C199.849356,97.9443359 210.873822,102.613886 218.512207,111.953125 C226.150592,121.292364 229.969727,134.806227 229.969727,152.495117 C229.969727,170.245857 226.166054,183.775181 218.558594,193.083496 C210.951134,202.391811 199.911205,207.045898 185.438477,207.045898 C171.027597,207.045898 160.018593,202.391811 152.411133,193.083496 C144.803673,183.775181 141,170.245857 141,152.495117 C141,134.806227 144.803673,121.292364 152.411133,111.953125 C160.018593,102.613886 171.027597,97.9443359 185.438477,97.9443359 Z M323.763672,152.124023 L302.147461,152.124023 C292.189729,152.124023 284.690618,153.871239 279.649902,157.365723 C274.609187,160.860206 272.088867,166.070929 272.088867,172.998047 C272.088867,179.244823 273.975242,184.099918 277.748047,187.563477 C281.520852,191.027036 286.747037,192.758789 293.426758,192.758789 C302.827846,192.758789 310.218723,189.496289 315.599609,182.971191 C320.980496,176.446094 323.701823,167.431698 323.763672,155.927734 L323.763672,152.124023 Z M340.926758,145.073242 L340.926758,204.355469 L323.763672,204.355469 L323.763672,188.955078 C320.114565,195.140005 315.522326,199.70132 309.986816,202.63916 C304.451307,205.577 297.7253,207.045898 289.808594,207.045898 C279.232369,207.045898 270.790071,204.061716 264.481445,198.093262 C258.17282,192.124807 255.018555,184.130909 255.018555,174.111328 C255.018555,162.545515 258.899538,153.763051 266.661621,147.763672 C274.423704,141.764293 285.819261,138.764648 300.848633,138.764648 L323.763672,138.764648 L323.763672,136.074219 C323.701823,127.786417 321.598979,121.771666 317.455078,118.029785 C313.311177,114.287904 306.693405,112.416992 297.601562,112.416992 C291.787731,112.416992 285.912139,113.251945 279.974609,114.921875 C274.03708,116.591805 268.25426,119.034815 262.625977,122.250977 L262.625977,105.180664 C268.934602,102.768543 274.980277,100.959479 280.763184,99.753418 C286.54609,98.5473573 292.158827,97.9443359 297.601562,97.9443359 C306.198611,97.9443359 313.543101,99.2122269 319.635254,101.748047 C325.727407,104.283867 330.659812,108.08754 334.432617,113.15918 C336.782889,116.251643 338.452795,120.070778 339.442383,124.616699 C340.431971,129.16262 340.926758,135.9814 340.926758,145.073242 Z M378.963867,60 L396.59082,60 L396.59082,143.588867 L441.400391,100.449219 L462.181641,100.449219 L421.268555,139.599609 L468.583008,204.355469 L447.708984,204.355469 L409.300781,150.732422 L396.59082,162.700195 L396.59082,204.355469 L378.963867,204.355469 L378.963867,60 Z M568.963867,139.970703 L568.963867,204.355469 L551.800781,204.355469 L551.800781,139.970703 C551.800781,130.631464 550.1618,123.766298 546.883789,119.375 C543.605778,114.983702 538.472366,112.788086 531.483398,112.788086 C523.504843,112.788086 517.366395,115.617647 513.067871,121.276855 C508.769347,126.936063 506.620117,135.053658 506.620117,145.629883 L506.620117,204.355469 L489.549805,204.355469 L489.549805,100.449219 L506.620117,100.449219 L506.620117,116.035156 C509.650731,110.097627 513.763646,105.59816 518.958984,102.536621 C524.154323,99.4750823 530.308233,97.9443359 537.420898,97.9443359 C547.997123,97.9443359 555.898249,101.423305 561.124512,108.381348 C566.350775,115.33939 568.963867,125.86907 568.963867,139.970703 Z M603.939453,165.019531 L603.939453,100.634766 L621.009766,100.634766 L621.009766,165.019531 C621.009766,174.358771 622.664209,181.223936 625.973145,185.615234 C629.28208,190.006532 634.40003,192.202148 641.327148,192.202148 C649.367553,192.202148 655.521463,189.372587 659.789062,183.713379 C664.056662,178.054171 666.19043,169.936576 666.19043,159.360352 L666.19043,100.634766 L683.353516,100.634766 L683.353516,204.355469 L666.19043,204.355469 L666.19043,188.769531 C663.159816,194.76891 659.031439,199.314763 653.805176,202.407227 C648.578913,205.49969 642.471389,207.045898 635.482422,207.045898 C624.844348,207.045898 616.92776,203.566929 611.732422,196.608887 C606.537083,189.650844 603.939453,179.121164 603.939453,165.019531 Z M757.201172,70.9472656 L757.201172,100.449219 L795.980469,100.449219 L795.980469,113.71582 L757.201172,113.71582 L757.201172,170.12207 C757.201172,177.791379 758.654608,183.141261 761.561523,186.171875 C764.468439,189.202489 769.540003,190.717773 776.776367,190.717773 L795.980469,190.717773 L795.980469,204.355469 L775.106445,204.355469 C762.303647,204.355469 753.273789,201.788763 748.016602,196.655273 C742.759414,191.521784 740.130859,182.677472 740.130859,170.12207 L740.130859,113.71582 L712.391602,113.71582 L712.391602,100.449219 L740.130859,100.449219 L740.130859,70.9472656 L757.201172,70.9472656 Z M841,171 L870.21875,171 L870.21875,204.535156 L841,204.535156 L841,171 Z"></path>
            </g>
        </g>
    </g>
</svg>